PathFileType	4	(X/Y/Z)	C:\Users\Basilio\Documents\Thesis Gigler\squatting_fais\c3dfiles\076\SLS_front_pre4\markers_experimental.trc
DataRate	CameraRate	NumFrames	NumMarkers	Units	OrigDataRate	OrigDataStartFrame	OrigNumFrames
200.000000	200.000000	4	61	mm	200.000000	0	1621
Frame#	Time	FHD			LBHD			RBHD			C7			T10			CLAV			LSHO			LUUPA			LMUPA			LDUPA			LLEP			LMEP			LRAD			LUL			LRFIN			RSHO			RUPA1			RMUPA			RDUPA			RLEP			RMEP			RRAD			RUL			RUFIN			RASI			USACR			LSACR			RSACR			LTHI1			LTHI2			LTHI3			LTHI4			LLFC			LMFC			LTIB1			LTIB2			LTIB3			LTIB4			LLMAL			LMMAL			LHEE			LMT1			LMT2			LMT5			RTHI			RTHI2			RTHI3			RTHI4			RLFC			RMFC			RTIB1			RTIB2			RTIB3			RTIB4			RLMAL			RMMAL			RHEE			RMT1			RMT2			RMT5			LASI			
		X1	Y1	Z1	X2	Y2	Z2	X3	Y3	Z3	X4	Y4	Z4	X5	Y5	Z5	X6	Y6	Z6	X7	Y7	Z7	X8	Y8	Z8	X9	Y9	Z9	X10	Y10	Z10	X11	Y11	Z11	X12	Y12	Z12	X13	Y13	Z13	X14	Y14	Z14	X15	Y15	Z15	X16	Y16	Z16	X17	Y17	Z17	X18	Y18	Z18	X19	Y19	Z19	X20	Y20	Z20	X21	Y21	Z21	X22	Y22	Z22	X23	Y23	Z23	X24	Y24	Z24	X25	Y25	Z25	X26	Y26	Z26	X27	Y27	Z27	X28	Y28	Z28	X29	Y29	Z29	X30	Y30	Z30	X31	Y31	Z31	X32	Y32	Z32	X33	Y33	Z33	X34	Y34	Z34	X35	Y35	Z35	X36	Y36	Z36	X37	Y37	Z37	X38	Y38	Z38	X39	Y39	Z39	X40	Y40	Z40	X41	Y41	Z41	X42	Y42	Z42	X43	Y43	Z43	X44	Y44	Z44	X45	Y45	Z45	X46	Y46	Z46	X47	Y47	Z47	X48	Y48	Z48	X49	Y49	Z49	X50	Y50	Z50	X51	Y51	Z51	X52	Y52	Z52	X53	Y53	Z53	X54	Y54	Z54	X55	Y55	Z55	X56	Y56	Z56	X57	Y57	Z57	X58	Y58	Z58	X59	Y59	Z59	X60	Y60	Z60	X61	Y61	Z61	

1	0	-185.0303497314453	1644.537353515625	-968.2757568359377	-352.2177124023438	1569.565551757813	-961.6408691406252	-251.9132537841797	1582.299072265625	-847.394226074219	-361.9027099609376	1454.7294921875	-901.0393066406252	-386.5477294921876	1133.375732421875	-920.0605468750002	-232.6662902832032	1377.935424804688	-930.642028808594	-334.8982543945313	1409.251342773438	-1084.537231445313	-372.3591613769532	1261.56982421875	-1214.654174804688	-350.6789550781251	1217.635864257813	-1203.897338867188	-384.5010375976564	1205.268432617188	-1252.959716796875	-401.7998352050782	1156.649658203125	-1279.73779296875	-471.4051513671876	1139.600463867188	-1227.3125	-346.0933837890626	995.322448730469	-1108.413452148438	-308.0657653808594	964.4788818359377	-1152.006591796875	-293.5678100585938	1017.540954589844	-1097.220336914063	-285.1347045898438	1400.227661132813	-755.3437500000001	-330.8327636718751	1267.075561523438	-615.6638183593751	-298.5677795410157	1228.446044921875	-615.4132690429689	-339.0389709472657	1209.7236328125	-574.2756347656251	-331.6683349609376	1139.579956054688	-551.9999389648439	-405.8802490234376	1125.112915039063	-600.2964477539064	-312.8641357421876	992.987243652344	-743.3374023437501	-259.1530761718751	1013.267578125	-755.7589111328126	-266.0433044433594	960.6619262695315	-706.7399291992189	-212.0311889648438	948.4687500000002	-831.4114379882815	-388.223114013672	1028.960693359375	-915.0210571289065	-399.0659484863282	1000.026611328125	-941.723815917969	-391.1648864746095	999.297058105469	-886.3936157226565	-333.8338012695313	800.7906494140627	-1098.463134765625	-314.2556457519532	718.5704345703126	-1101.08056640625	-265.3084411621094	715.5026245117189	-1092.672607421875	-348.2031860351563	669.8469238281251	-1086.549438476563	-361.4820251464844	509.6868286132814	-1064.762817382813	-316.8399963378907	497.3797912597657	-955.1876220703127	-323.5206909179688	363.6889648437501	-1008.655700683594	-351.7732543945313	314.6122131347657	-1076.47119140625	-320.6301574707032	316.3249206542969	-1043.150390625	-328.8472900390626	237.1260223388672	-1014.33544921875	-384.9050598144532	109.5591583251953	-1069.395141601563	-354.6876220703126	120.6998367309571	-991.0944824218752	-442.1132812500001	96.77491760253909	-1024.011474609375	-239.6735534667969	54.66437911987306	-1007.177917480469	-233.7903594970704	49.85421371459962	-1045.271240234375	-256.7823181152344	42.54871368408204	-1095.181518554688	-325.5643615722657	711.2801513671876	-751.8205566406251	-293.9753417968751	651.7682495117189	-749.1396484375001	-260.4296569824219	651.3885498046876	-755.9365844726564	-328.6638488769532	577.2182617187501	-760.9065551757814	-339.0166931152344	516.8717041015626	-764.6842651367189	-303.6908264160157	502.0389099121095	-878.0303344726565	-305.9907226562501	382.8925781250001	-774.7886352539065	-378.8979492187501	305.9203796386719	-751.2717285156251	-332.3866882324219	301.1276855468751	-756.9916992187501	-317.7304077148438	253.4456024169922	-786.8452758789065	-382.2436523437501	116.9234619140625	-752.8630981445314	-357.6974792480469	125.7575759887696	-834.4045410156252	-439.2722473144532	102.4195861816407	-793.4869384765627	-243.2833404541016	51.83268356323244	-819.682312011719	-235.6776733398438	51.79345703125001	-774.3710937500002	-263.6177673339844	36.49007797241212	-719.8687744140626	nan	nan	nan	
2	0.005	-183.874252319336	1644.95458984375	-967.406677246094	-351.4954528808594	1570.03759765625	-963.1802978515627	-252.9253540039063	1582.363647460938	-847.0628662109377	-361.9446716308594	1454.738891601563	-901.3165283203127	-386.577606201172	1133.424926757813	-920.1109008789065	-232.6261138916016	1377.885375976563	-930.5550537109377	-334.6580200195313	1409.204711914063	-1084.569213867188	-372.1849670410157	1261.48828125	-1214.673950195313	-350.4955444335938	1217.592529296875	-1203.873046875	-384.3770446777345	1205.1953125	-1253.002563476563	-401.5903930664064	1156.601806640625	-1279.753540039063	-471.235809326172	1139.506958007813	-1227.373413085938	-346.1024169921876	995.2548828125002	-1108.365600585938	-308.0149230957032	964.4092407226565	-1152.001953125	-293.5040893554688	1017.501647949219	-1097.227416992188	-285.2993469238282	1400.264892578125	-755.3461914062501	-331.0839843750001	1267.111328125	-615.6887817382814	-298.8195800781251	1228.484741210938	-615.4206542968751	-339.3459472656251	1209.772094726563	-574.3143920898439	-331.9629516601563	1139.624145507813	-551.9817504882814	-406.1637573242189	1125.137573242188	-600.4337158203126	-312.8900451660157	992.9862060546877	-743.3229370117189	-259.3081970214844	1013.296203613281	-755.7082519531251	-266.1743164062501	960.7346801757815	-706.6835937500001	-212.0702362060547	948.5147705078127	-831.3098754882815	-388.2211303710939	1028.9326171875	-915.056335449219	-399.0791931152345	1000.005554199219	-941.8021240234377	-391.1749267578126	999.2981567382815	-886.3884277343752	-333.7779235839844	800.8115844726565	-1098.33056640625	-314.1962890625001	718.5526733398439	-1101.069091796875	-265.2872314453126	715.5065307617189	-1092.661376953125	-348.1810913085938	669.8057250976564	-1086.502319335938	-361.5063476562501	509.6793212890626	-1064.706787109375	-316.8667297363282	497.3793945312501	-955.173767089844	-323.5709228515626	363.6756591796876	-1008.613708496094	-351.6326904296876	314.8032226562501	-1076.359130859375	-320.7163696289063	316.2880859375001	-1043.187255859375	-328.8472900390626	237.1260223388672	-1014.33544921875	-384.9659118652345	109.5665054321289	-1069.407836914063	-354.6916809082032	120.6699752807617	-991.091735839844	-441.6746215820314	96.58247375488284	-1023.892578125	-239.6735534667969	54.66437911987306	-1007.177917480469	-233.7853393554688	49.86842346191408	-1045.263305664063	-256.7940063476563	42.55887985229493	-1095.198974609375	-325.6494750976563	711.2733764648439	-751.7859497070314	-294.0232543945313	651.7813110351564	-749.0929565429689	-260.5111694335938	651.3921508789064	-755.8868408203126	-328.7116699218751	577.2244873046876	-760.8632812500001	-339.0633544921876	516.8762207031251	-764.6593017578126	-303.7280883789063	502.0330200195314	-878.045349121094	-306.0165100097657	382.9031066894532	-774.7951660156252	-378.9698181152344	305.8935241699219	-751.2438354492189	-332.4238281250001	301.1254882812501	-756.9767456054689	-317.7741088867188	253.4421844482422	-786.8450317382815	-382.2387695312501	116.9100952148438	-752.8386840820314	-357.6653747558594	125.7754745483399	-834.4149169921877	-439.2722473144532	102.4195861816407	-793.4869384765627	-243.2715606689454	51.87460327148439	-819.706726074219	-235.6970672607422	51.78212356567384	-774.3941040039065	-263.6289062500001	36.49811172485352	-719.8429565429689	nan	nan	nan	
3	0.01	-183.8219757080078	1644.488647460938	-966.1430664062502	-351.0194091796876	1570.017333984375	-964.2969970703127	-254.0770111083985	1582.493041992188	-847.0227661132815	-361.9881896972657	1454.730834960938	-901.4984130859377	-386.5631713867189	1133.421752929688	-920.1683349609377	-232.5977935791016	1377.850341796875	-930.435241699219	-334.5426635742188	1409.119750976563	-1084.629272460938	-372.0159606933594	1261.4287109375	-1214.728759765625	-350.3977050781251	1217.51318359375	-1203.839477539063	-384.2662048339845	1205.143432617188	-1253.027099609375	-401.403289794922	1156.560302734375	-1279.832397460938	-471.0066528320314	1139.183959960938	-1227.593383789063	-346.0901184082032	995.2460937500002	-1108.297119140625	-307.9213867187501	964.3778076171877	-1151.911376953125	-293.4303588867188	1017.472534179688	-1097.186889648438	-285.4990539550782	1400.293212890625	-755.3507080078126	-331.3673400878907	1267.15234375	-615.7190551757814	-299.0850524902344	1228.5576171875	-615.3995361328126	-339.6640625000001	1209.831665039063	-574.3896484375001	-332.2746276855469	1139.695434570313	-551.9925537109376	-406.4088134765626	1125.158203125	-600.4647827148439	-313.0574645996094	992.9739990234377	-743.2585449218751	-257.4761352539063	1013.091674804688	-754.9654541015626	-266.3376770019532	960.7757568359377	-706.5852661132814	-212.0292968750001	948.3759765625002	-831.1325683593752	-388.2300415039064	1028.955688476563	-915.0900878906252	-399.0828247070314	1000.020385742188	-941.8087158203127	-391.1477050781251	999.3110351562502	-886.4343261718752	-333.7141113281251	800.7857055664065	-1098.2470703125	-314.1981201171876	718.5887451171876	-1101.032592773438	-265.2355957031251	715.4576416015626	-1092.573364257813	-348.1351928710938	669.8252563476564	-1086.512817382813	-361.4694824218751	509.6849365234376	-1064.698486328125	-316.9172363281251	497.3774414062501	-955.1135253906252	-323.5456237792969	363.6977844238282	-1008.605041503906	-351.7555541992188	314.6305847167969	-1076.470336914063	-320.6799926757813	316.3244934082032	-1043.136108398438	-328.8814086914063	237.1197967529297	-1014.321228027344	-384.9673156738282	109.5707244873047	-1069.404663085938	-354.6916809082032	120.6699600219727	-991.091735839844	-441.6563110351564	96.58926391601565	-1023.902770996094	-239.6440887451172	54.68037033081056	-1007.141357421875	-233.7525939941407	49.87159729003908	-1045.224731445313	-256.8066711425782	42.53289413452149	-1095.162109375	-325.7236633300782	711.2814331054689	-751.7174072265626	-294.1054382324219	651.7553100585939	-749.0103149414064	-260.5611877441407	651.3943481445314	-755.8055419921876	-328.7562561035157	577.2205200195314	-760.8212890625001	-339.1244812011719	516.8948974609376	-764.6176757812501	-303.7289123535157	502.0581970214845	-877.9853515625002	-306.0727844238282	382.8792419433594	-774.740417480469	-378.9772338867188	305.8902893066407	-751.2011718750001	-332.4614562988282	301.1296386718751	-756.9254760742189	-317.7773742675782	253.4098052978516	-786.8433227539065	-382.2303466796876	116.9208145141602	-752.8363647460939	-357.6636047363282	125.755973815918	-834.3854980468752	-439.2745666503907	102.3738708496094	-793.4916992187502	-243.3028259277344	51.86679458618165	-819.7045898437502	-235.6823272705079	51.78253555297853	-774.389343261719	-263.6437377929688	36.47706604003907	-719.8259277343751	nan	nan	nan	
4	0.015	-182.8867645263672	1644.847045898438	-965.3331298828127	-350.8114318847657	1569.555786132813	-965.038757324219	-255.178207397461	1582.601196289063	-846.7879028320315	-361.9801025390626	1454.706420898438	-901.7388916015627	-386.5631408691407	1133.432373046875	-920.1937255859377	-232.5691680908204	1377.776123046875	-930.3990478515627	-334.3239440917969	1409.104614257813	-1084.770874023438	-371.7962036132813	1261.372924804688	-1214.773193359375	-350.2642517089844	1217.477905273438	-1203.888916015625	-383.9467773437501	1205.131713867188	-1253.164428710938	-400.2886047363282	1156.332275390625	-1279.470092773438	-470.8619689941407	1139.153198242188	-1227.743408203125	-346.0786132812501	995.214782714844	-1108.281616210938	-307.8749389648438	964.3052978515627	-1151.887573242188	-293.3965759277344	1017.416625976563	-1097.133422851563	-285.6852416992188	1400.344482421875	-755.4168090820314	-331.6211853027344	1267.216918945313	-615.7843627929689	-299.3642883300782	1228.650756835938	-615.4408569335939	-339.9960937500001	1209.888671875	-574.4091796875001	-332.5637817382813	1139.786376953125	-551.9824829101564	-406.6728515625001	1125.254028320313	-600.5343627929689	-313.1696777343751	993.0079345703127	-743.2232055664064	-257.6178588867188	1013.14404296875	-754.9338378906251	-266.4835815429688	960.8082275390627	-706.5156250000001	-212.2006988525391	948.5313720703127	-831.108093261719	-388.3054504394532	1028.945556640625	-915.0765380859377	-399.130096435547	1000.005126953125	-941.7963867187502	-391.2512512207032	999.3001708984377	-886.4124145507815	-333.6350402832032	800.7899169921877	-1098.299438476563	-314.1477050781251	718.5728149414064	-1100.977905273438	-265.2238464355469	715.4724121093751	-1092.489868164063	-348.1691284179688	669.8125000000001	-1086.499145507813	-361.5084533691407	509.6893615722657	-1064.684692382813	-316.9148559570313	497.3773498535157	-955.1148071289065	-323.5775756835938	363.7008666992188	-1008.626281738281	-351.7826232910157	314.6114196777344	-1076.445922851563	-320.7316894531251	316.3407592773438	-1043.150512695313	-328.8356323242188	237.1157684326172	-1014.301818847656	-384.9837646484376	109.545036315918	-1069.37890625	-354.6920776367188	120.6863250732422	-991.0939941406252	-441.7102050781251	96.59334564208987	-1023.917602539063	-239.6735534667969	54.6643753051758	-1007.177917480469	-233.7784423828126	49.85974121093751	-1045.24658203125	-256.7515563964844	42.5428810119629	-1095.185546875	-325.7777099609376	711.2979125976564	-751.7068481445314	-294.1515808105469	651.7558593750001	-749.0199584960939	-260.6033325195313	651.3885498046876	-755.8028564453126	-328.7803955078126	577.2169799804689	-760.7937622070314	-339.1224975585938	516.8891601562501	-764.5990600585939	-303.7586059570313	502.0308227539064	-877.9986572265627	-306.0538024902344	382.8810119628907	-774.7181396484377	-379.0424804687501	305.9141235351563	-751.2093505859376	-332.4772644042969	301.0941772460938	-756.9367065429689	-317.7894287109376	253.4447021484376	-786.809753417969	-382.2288208007813	116.8750915527344	-752.8389282226564	-357.6755065917969	125.7716903686524	-834.3979492187502	-439.2984313964845	102.4009017944336	-793.4824218750002	-243.3333587646485	51.83740615844728	-819.755065917969	-235.6827697753907	51.78696823120119	-774.3781738281252	-263.6274108886719	36.48155212402344	-719.8410644531251	nan	nan	nan	
